RBDS001runT35_grf
version=1
nRows=18
nColumns=19
inDegrees=no
endheader
time	ground_force_r_vx	ground_force_r_vy	ground_force_r_vz	ground_force_r_px	ground_force_r_py	ground_force_r_pz	ground_torque_r_x	ground_torque_r_y	ground_torque_r_z	ground_force_l_vx	ground_force_l_vy	ground_force_l_vz	ground_force_l_px	ground_force_l_py	ground_force_l_pz	ground_torque_l_x	ground_torque_l_y	ground_torque_l_z
     15.00000000	   -170.56999853	    604.30988732	    -27.32063438	      2.66890193	      0.00000000	      1.05821411	      0.41510490	     -2.68138320	      0.88818346	      0.00000000	      0.00000000	      0.00000000	      0.00000000	      0.00000000	      0.00000000	      0.00000000	      0.00000000	      0.00000000
     15.00333333	   -174.04488528	    673.04806011	    -24.06297473	      2.57791541	      0.00000000	      1.06344089	      0.37408048	     -2.08740737	      0.94794862	      0.00000000	      0.00000000	      0.00000000	      0.00000000	      0.00000000	      0.00000000	      0.00000000	      0.00000000	      0.00000000
     15.00666667	   -176.41016973	    741.55820357	    -19.88233379	      2.64241112	      0.00000000	      1.05115500	      0.29119157	     -1.23651419	      0.98231933	      0.00000000	      0.00000000	      0.00000000	      0.00000000	      0.00000000	      0.00000000	      0.00000000	      0.00000000	      0.00000000
     15.01000000	   -177.89062890	    809.08446487	    -15.00588609	      2.57434913	      0.00000000	      1.03971267	      0.17559155	     -0.18608167	      0.99378357	      0.00000000	      0.00000000	      0.00000000	      0.00000000	      0.00000000	      0.00000000	      0.00000000	      0.00000000	      0.00000000
     15.01333333	   -178.54695267	    874.91546312	     -9.66920627	      2.56754281	      0.00000000	      1.03790715	      0.03830008	      0.99162642	      0.98725171	      0.00000000	      0.00000000	      0.00000000	      0.00000000	      0.00000000	      0.00000000	      0.00000000	      0.00000000	      0.00000000
     15.01666667	   -178.33956068	    938.44501693	     -4.08167530	      2.57051653	      0.00000000	      1.04616824	     -0.11292948	      2.25210728	      0.96813670	      0.00000000	      0.00000000	      0.00000000	      0.00000000	      0.00000000	      0.00000000	      0.00000000	      0.00000000	      0.00000000
     15.02000000	   -177.22043424	    999.22157509	      1.57144143	      2.53862804	      0.00000000	      1.03042394	     -0.27285248	      3.57442992	      0.94081959	      0.00000000	      0.00000000	      0.00000000	      0.00000000	      0.00000000	      0.00000000	      0.00000000	      0.00000000	      0.00000000
     15.02333333	   -175.18468550	   1056.94868415	      7.09853061	      2.53479094	      0.00000000	      1.03482126	     -0.43581742	      4.93574992	      0.90768278	      0.00000000	      0.00000000	      0.00000000	      0.00000000	      0.00000000	      0.00000000	      0.00000000	      0.00000000	      0.00000000
     15.02666667	   -172.26210659	   1111.43938512	     12.27728291	      2.53657320	      0.00000000	      1.03582075	     -0.59424238	      6.29576602	      0.86903544	      0.00000000	      0.00000000	      0.00000000	      0.00000000	      0.00000000	      0.00000000	      0.00000000	      0.00000000	      0.00000000
     15.03000000	   -168.49228398	   1162.56126374	     16.87434686	      2.50894095	      0.00000000	      1.02426013	     -0.73831154	      7.59370930	      0.82399788	      0.00000000	      0.00000000	      0.00000000	      0.00000000	      0.00000000	      0.00000000	      0.00000000	      0.00000000	      0.00000000
     15.03333333	   -163.91365776	   1210.19703820	     20.70037853	      2.50641886	      0.00000000	      1.03131329	     -0.85870976	      8.76876646	      0.77192851	      0.00000000	      0.00000000	      0.00000000	      0.00000000	      0.00000000	      0.00000000	      0.00000000	      0.00000000	      0.00000000
     15.03666667	   -158.56609622	   1254.23148195	     23.64939005	      2.49030449	      0.00000000	      1.02375071	     -0.95002414	      9.78442302	      0.71335391	      0.00000000	      0.00000000	      0.00000000	      0.00000000	      0.00000000	      0.00000000	      0.00000000	      0.00000000	      0.00000000
     15.04000000	   -152.49128711	   1294.55077336	     25.70515194	      2.47782857	      0.00000000	      1.02633873	     -1.01098026	     10.63099739	      0.64989630	      0.00000000	      0.00000000	      0.00000000	      0.00000000	      0.00000000	      0.00000000	      0.00000000	      0.00000000	      0.00000000
     15.04333333	   -145.71914687	   1331.04219072	     26.93388763	      2.47853893	      0.00000000	      1.03232374	     -1.04304662	     11.31847477	      0.58397381	      0.00000000	      0.00000000	      0.00000000	      0.00000000	      0.00000000	      0.00000000	      0.00000000	      0.00000000	      0.00000000
     15.04666667	   -138.25863089	   1363.60305160	     27.46218178	      2.46235617	      0.00000000	      1.02171521	     -1.04895254	     11.86742810	      0.51843335	      0.00000000	      0.00000000	      0.00000000	      0.00000000	      0.00000000	      0.00000000	      0.00000000	      0.00000000	      0.00000000
     15.05000000	   -130.10635655	   1392.15618451	     27.43934311	      2.44321843	      0.00000000	      1.02596247	     -1.03148086	     12.29913436	      0.45587994	      0.00000000	      0.00000000	      0.00000000	      0.00000000	      0.00000000	      0.00000000	      0.00000000	      0.00000000	      0.00000000
     15.05333333	   -121.25693604	   1416.66470828	     27.01428521	      2.43829447	      0.00000000	      1.03118405	     -0.99325477	     12.63259486	      0.39829605	      0.00000000	      0.00000000	      0.00000000	      0.00000000	      0.00000000	      0.00000000	      0.00000000	      0.00000000	      0.00000000
     15.05666667	   -111.70821016	   1437.14225221	     26.33473684	      2.43971069	      0.00000000	      1.02170773	     -0.93697510	     12.88600681	      0.34712293	      0.00000000	      0.00000000	      0.00000000	      0.00000000	      0.00000000	      0.00000000	      0.00000000	      0.00000000	      0.00000000
